<?xml version="1.0" encoding="utf-8"?>
<!-- Generator: Adobe Illustrator 16.0.0, SVG Export Plug-In . SVG Version: 6.00 Build 0)  -->
<!DOCTYPE svg PUBLIC "-//W3C//DTD SVG 1.1//EN" "http://www.w3.org/Graphics/SVG/1.1/DTD/svg11.dtd">
<svg version="1.1" id="Layer_1" xmlns="http://www.w3.org/2000/svg" xmlns:xlink="http://www.w3.org/1999/xlink" x="0px" y="0px"
	 width="60px" height="60px" viewBox="0 0 60 60" enable-background="new 0 0 60 60" xml:space="preserve">
<path fill="#FFFFFF" d="M51.432,33.988c-0.896,0-1.627-0.729-1.627-1.629v-6.315c0-10.608-8.63-19.239-19.238-19.239
	c-10.606,0-19.237,8.631-19.237,19.239c0,0.897-0.729,1.627-1.627,1.627s-1.626-0.729-1.626-1.627
	c0-12.402,10.09-22.492,22.49-22.492c12.402,0,22.492,10.089,22.492,22.492v6.315C53.059,33.26,52.33,33.988,51.432,33.988z"/>
<path fill="#FFFFFF" d="M46.496,45.896c-0.641-0.633-1.667-0.631-2.301,0.008c-2.781,2.802-6.26,4.642-10.027,5.356
	c0.461,0.544,0.74,1.246,0.74,2.011c0,0.43-0.088,0.836-0.246,1.207c4.456-0.819,8.562-2.979,11.843-6.281
	C47.137,47.561,47.134,46.529,46.496,45.896z"/>
<path fill="#FFFFFF" d="M31.793,58.016H29.34c-2.615,0-4.742-2.13-4.742-4.744c0-2.612,2.127-4.742,4.742-4.742h2.453
	c2.614,0,4.741,2.128,4.741,4.742S34.407,58.016,31.793,58.016z M29.34,51.782c-0.821,0-1.489,0.668-1.489,1.487
	c0,0.82,0.668,1.487,1.489,1.487h2.452c0.821,0,1.489-0.667,1.489-1.487c0-0.819-0.668-1.487-1.489-1.487H29.34z"/>
<path fill="#FFFFFF" d="M47.816,41.594c-2.773,0-5.033-2.258-5.033-5.033V26.047c0-2.776,2.26-5.035,5.033-5.035
	c2.775,0,5.035,2.258,5.035,5.035v10.514C52.852,39.336,50.593,41.594,47.816,41.594z M47.816,24.266
	c-0.98,0-1.779,0.799-1.779,1.781v10.514c0,0.98,0.799,1.78,1.779,1.78c0.981,0,1.781-0.8,1.781-1.78V26.047
	C49.6,25.063,48.799,24.266,47.816,24.266z"/>
<path fill="#FFFFFF" d="M0.832,33.646V28.96c0-3.22,2.62-5.839,5.84-5.839h2.779c0.897,0,1.627,0.728,1.627,1.626v13.11
	c0,0.898-0.729,1.627-1.627,1.627H6.672C3.452,39.486,0.832,36.866,0.832,33.646z M7.825,26.374H6.673
	c-1.427,0-2.587,1.16-2.587,2.586v4.687c0,1.429,1.16,2.586,2.587,2.586h1.152V26.374z"/>
<path fill="#FFFFFF" d="M54.161,39.594h-2.779c-0.897,0-1.627-0.728-1.627-1.627V24.854c0-0.896,0.729-1.626,1.627-1.626h2.779
	c3.219,0,5.839,2.62,5.839,5.839v4.688C60,36.975,57.38,39.594,54.161,39.594z M53.008,36.34h1.153c1.426,0,2.586-1.16,2.586-2.585
	v-4.688c0-1.426-1.16-2.586-2.586-2.586h-1.153V36.34z"/>
<path fill="#FFFFFF" d="M7.984,36.561V26.047c0-2.776,2.26-5.035,5.035-5.035c2.776,0,5.035,2.258,5.035,5.035v10.514
	c0,2.775-2.259,5.033-5.035,5.033C10.244,41.594,7.984,39.336,7.984,36.561z M11.238,26.047v10.514c0,0.98,0.799,1.78,1.78,1.78
	c0.983,0,1.781-0.8,1.781-1.78V26.047c0-0.982-0.799-1.781-1.781-1.781C12.038,24.266,11.238,25.063,11.238,26.047z"/>
</svg>
