<?xml version="1.0" encoding="utf-8"?>
<!-- Generator: Adobe Illustrator 16.0.0, SVG Export Plug-In . SVG Version: 6.00 Build 0)  -->
<!DOCTYPE svg PUBLIC "-//W3C//DTD SVG 1.1//EN" "http://www.w3.org/Graphics/SVG/1.1/DTD/svg11.dtd">
<svg version="1.1" id="Layer_1" xmlns="http://www.w3.org/2000/svg" xmlns:xlink="http://www.w3.org/1999/xlink" x="0px" y="0px"
	 width="60px" height="60px" viewBox="0 0 60 60" enable-background="new 0 0 60 60" xml:space="preserve">
<g>
	<path fill="#FFFFFF" d="M48.9,31.229L57.52,48.93c0.353,0.721-0.02,1.312-0.817,1.312H2.64c-0.803,0-1.17-0.591-0.82-1.312
		l8.617-17.701c0.141-0.28,0.506-0.512,0.819-0.512h7.39c0.229,0,0.535,0.143,0.686,0.312c0.502,0.58,1.012,1.146,1.521,1.705
		c0.483,0.533,0.97,1.072,1.451,1.621h-8.769c-0.313,0-0.683,0.229-0.817,0.513l-5.71,11.729h45.327l-5.709-11.729
		c-0.14-0.28-0.506-0.513-0.817-0.513H37.02c0.481-0.549,0.969-1.088,1.453-1.621c0.512-0.562,1.022-1.125,1.526-1.705
		c0.146-0.172,0.455-0.312,0.683-0.312h7.403C48.396,30.717,48.766,30.945,48.9,31.229z M42.339,19.13
		c0,9.674-8.053,11.487-11.84,20.782c-0.311,0.756-1.371,0.752-1.682-0.004C25.401,31.527,18.516,29.229,17.2,21.763
		C15.903,14.41,20.994,7.213,28.427,6.51C35.982,5.796,42.339,11.722,42.339,19.13z M36.354,19.13c0-3.696-2.996-6.694-6.691-6.694
		c-3.697,0-6.694,2.998-6.694,6.694c0,3.698,2.997,6.695,6.694,6.695C33.357,25.825,36.354,22.828,36.354,19.13z"/>
</g>
</svg>
