<?xml version="1.0" encoding="utf-8"?>
<!-- Generator: Adobe Illustrator 16.0.0, SVG Export Plug-In . SVG Version: 6.00 Build 0)  -->
<!DOCTYPE svg PUBLIC "-//W3C//DTD SVG 1.1//EN" "http://www.w3.org/Graphics/SVG/1.1/DTD/svg11.dtd">
<svg version="1.1" id="Layer_1" xmlns="http://www.w3.org/2000/svg" xmlns:xlink="http://www.w3.org/1999/xlink" x="0px" y="0px"
	 width="60px" height="60px" viewBox="0 0 60 60" enable-background="new 0 0 60 60" xml:space="preserve">
<g>
	<path fill="#FFFFFF" d="M55.618,29.958c0,13.856-11.321,25.089-25.289,25.089c-4.432,0-8.596-1.132-12.221-3.12L4.109,56.375
		l4.562-13.466c-2.299-3.778-3.624-8.218-3.624-12.954c0-13.856,11.317-25.088,25.285-25.088
		C44.297,4.87,55.618,16.102,55.618,29.958z M30.326,8.867c-11.721,0-21.255,9.462-21.255,21.095c0,4.615,1.504,8.89,4.05,12.367
		l-2.654,7.83l8.165-2.595c3.359,2.203,7.379,3.483,11.694,3.483c11.725,0,21.26-9.46,21.26-21.093
		C51.59,18.33,42.051,8.867,30.326,8.867z M43.1,35.738c-0.156-0.256-0.57-0.41-1.188-0.719c-0.616-0.311-3.667-1.795-4.235-1.998
		c-0.567-0.207-0.981-0.311-1.396,0.306c-0.406,0.616-1.596,2.001-1.963,2.415c-0.359,0.412-0.721,0.465-1.342,0.16
		c-0.619-0.312-2.619-0.959-4.986-3.051c-1.842-1.637-3.087-3.646-3.446-4.264c-0.364-0.615-0.037-0.948,0.271-1.253
		c0.277-0.277,0.62-0.718,0.931-1.079c0.31-0.358,0.413-0.612,0.62-1.024c0.203-0.412,0.1-0.769-0.053-1.079
		c-0.154-0.31-1.393-3.333-1.911-4.563c-0.515-1.23-1.031-1.027-1.395-1.027c-0.36,0-0.773-0.051-1.188-0.051
		c-0.413,0-1.085,0.149-1.649,0.766C19.602,19.897,18,21.383,18,24.409c0,3.029,2.218,5.953,2.529,6.36
		c0.312,0.406,4.289,6.819,10.59,9.285c6.305,2.461,6.305,1.641,7.439,1.533c1.139-0.104,3.668-1.484,4.183-2.92
		C43.254,37.229,43.254,35.994,43.1,35.738z"/>
</g>
</svg>
